solid OpenSCAD_Model
  facet normal -1 0 0
    outer loop
      vertex -2.5 -25 -1
      vertex -2.5 -2.5 1
      vertex -2.5 -2.5 -1
    endloop
  endfacet
  facet normal -1 -0 0
    outer loop
      vertex -2.5 -2.5 1
      vertex -2.5 -25 -1
      vertex -2.5 -25 1
    endloop
  endfacet
  facet normal -1 0 0
    outer loop
      vertex -2.5 2.5 -1
      vertex -2.5 25 1
      vertex -2.5 25 -1
    endloop
  endfacet
  facet normal -1 -0 0
    outer loop
      vertex -2.5 25 1
      vertex -2.5 2.5 -1
      vertex -2.5 2.5 1
    endloop
  endfacet
  facet normal -0 0 1
    outer loop
      vertex -25 2.5 1
      vertex -2.5 -2.5 1
      vertex -2.5 2.5 1
    endloop
  endfacet
  facet normal 0 0 1
    outer loop
      vertex -2.5 -2.5 1
      vertex -25 2.5 1
      vertex -25 -2.5 1
    endloop
  endfacet
  facet normal 0 0 1
    outer loop
      vertex -2.5 2.5 1
      vertex 2.5 2.5 1
      vertex 2.5 25 1
    endloop
  endfacet
  facet normal 0 0 1
    outer loop
      vertex 2.5 2.5 1
      vertex -2.5 2.5 1
      vertex 2.5 -2.5 1
    endloop
  endfacet
  facet normal 0 0 1
    outer loop
      vertex -2.5 2.5 1
      vertex 2.5 25 1
      vertex -2.5 25 1
    endloop
  endfacet
  facet normal 0 0 1
    outer loop
      vertex -2.5 -2.5 1
      vertex 2.5 -2.5 1
      vertex -2.5 2.5 1
    endloop
  endfacet
  facet normal 0 0 1
    outer loop
      vertex 2.5 -2.5 1
      vertex -2.5 -2.5 1
      vertex 2.5 -25 1
    endloop
  endfacet
  facet normal 0 0 1
    outer loop
      vertex 2.5 -25 1
      vertex -2.5 -2.5 1
      vertex -2.5 -25 1
    endloop
  endfacet
  facet normal -0 0 1
    outer loop
      vertex 2.5 2.5 1
      vertex 25 -2.5 1
      vertex 25 2.5 1
    endloop
  endfacet
  facet normal 0 0 1
    outer loop
      vertex 25 -2.5 1
      vertex 2.5 2.5 1
      vertex 2.5 -2.5 1
    endloop
  endfacet
  facet normal 1 -0 0
    outer loop
      vertex 2.5 -25 1
      vertex 2.5 -2.5 -1
      vertex 2.5 -2.5 1
    endloop
  endfacet
  facet normal 1 0 0
    outer loop
      vertex 2.5 -2.5 -1
      vertex 2.5 -25 1
      vertex 2.5 -25 -1
    endloop
  endfacet
  facet normal 1 -0 0
    outer loop
      vertex 2.5 2.5 1
      vertex 2.5 25 -1
      vertex 2.5 25 1
    endloop
  endfacet
  facet normal 1 0 0
    outer loop
      vertex 2.5 25 -1
      vertex 2.5 2.5 1
      vertex 2.5 2.5 -1
    endloop
  endfacet
  facet normal 0 1 -0
    outer loop
      vertex 2.5 25 -1
      vertex -2.5 25 1
      vertex 2.5 25 1
    endloop
  endfacet
  facet normal 0 1 0
    outer loop
      vertex -2.5 25 1
      vertex 2.5 25 -1
      vertex -2.5 25 -1
    endloop
  endfacet
  facet normal 0 0 -1
    outer loop
      vertex -25 -2.5 -1
      vertex -2.5 2.5 -1
      vertex -2.5 -2.5 -1
    endloop
  endfacet
  facet normal -0 0 -1
    outer loop
      vertex -2.5 2.5 -1
      vertex -25 -2.5 -1
      vertex -25 2.5 -1
    endloop
  endfacet
  facet normal 0 0 -1
    outer loop
      vertex -2.5 -2.5 -1
      vertex 2.5 -2.5 -1
      vertex 2.5 -25 -1
    endloop
  endfacet
  facet normal 0 0 -1
    outer loop
      vertex 2.5 -2.5 -1
      vertex -2.5 -2.5 -1
      vertex 2.5 2.5 -1
    endloop
  endfacet
  facet normal 0 0 -1
    outer loop
      vertex -2.5 -2.5 -1
      vertex 2.5 -25 -1
      vertex -2.5 -25 -1
    endloop
  endfacet
  facet normal 0 0 -1
    outer loop
      vertex -2.5 2.5 -1
      vertex 2.5 2.5 -1
      vertex -2.5 -2.5 -1
    endloop
  endfacet
  facet normal 0 0 -1
    outer loop
      vertex 2.5 2.5 -1
      vertex -2.5 2.5 -1
      vertex 2.5 25 -1
    endloop
  endfacet
  facet normal -0 0 -1
    outer loop
      vertex 2.5 25 -1
      vertex -2.5 2.5 -1
      vertex -2.5 25 -1
    endloop
  endfacet
  facet normal 0 0 -1
    outer loop
      vertex 2.5 -2.5 -1
      vertex 25 2.5 -1
      vertex 25 -2.5 -1
    endloop
  endfacet
  facet normal -0 0 -1
    outer loop
      vertex 25 2.5 -1
      vertex 2.5 -2.5 -1
      vertex 2.5 2.5 -1
    endloop
  endfacet
  facet normal 0 -1 0
    outer loop
      vertex -2.5 -25 -1
      vertex 2.5 -25 1
      vertex -2.5 -25 1
    endloop
  endfacet
  facet normal 0 -1 -0
    outer loop
      vertex 2.5 -25 1
      vertex -2.5 -25 -1
      vertex 2.5 -25 -1
    endloop
  endfacet
  facet normal -1 0 0
    outer loop
      vertex -25 -2.5 -1
      vertex -25 2.5 1
      vertex -25 2.5 -1
    endloop
  endfacet
  facet normal -1 -0 0
    outer loop
      vertex -25 2.5 1
      vertex -25 -2.5 -1
      vertex -25 -2.5 1
    endloop
  endfacet
  facet normal 1 -0 0
    outer loop
      vertex 25 -2.5 1
      vertex 25 2.5 -1
      vertex 25 2.5 1
    endloop
  endfacet
  facet normal 1 0 0
    outer loop
      vertex 25 2.5 -1
      vertex 25 -2.5 1
      vertex 25 -2.5 -1
    endloop
  endfacet
  facet normal 0 1 -0
    outer loop
      vertex 25 2.5 -1
      vertex 2.5 2.5 1
      vertex 25 2.5 1
    endloop
  endfacet
  facet normal 0 1 0
    outer loop
      vertex 2.5 2.5 1
      vertex 25 2.5 -1
      vertex 2.5 2.5 -1
    endloop
  endfacet
  facet normal 0 1 -0
    outer loop
      vertex -2.5 2.5 -1
      vertex -25 2.5 1
      vertex -2.5 2.5 1
    endloop
  endfacet
  facet normal 0 1 0
    outer loop
      vertex -25 2.5 1
      vertex -2.5 2.5 -1
      vertex -25 2.5 -1
    endloop
  endfacet
  facet normal 0 -1 0
    outer loop
      vertex -25 -2.5 -1
      vertex -2.5 -2.5 1
      vertex -25 -2.5 1
    endloop
  endfacet
  facet normal 0 -1 -0
    outer loop
      vertex -2.5 -2.5 1
      vertex -25 -2.5 -1
      vertex -2.5 -2.5 -1
    endloop
  endfacet
  facet normal 0 -1 0
    outer loop
      vertex 2.5 -2.5 -1
      vertex 25 -2.5 1
      vertex 2.5 -2.5 1
    endloop
  endfacet
  facet normal 0 -1 -0
    outer loop
      vertex 25 -2.5 1
      vertex 2.5 -2.5 -1
      vertex 25 -2.5 -1
    endloop
  endfacet
endsolid OpenSCAD_Model
